<?xml version="1.0" encoding="iso-8859-1"?>
<!-- Generator: Adobe Illustrator 19.0.0, SVG Export Plug-In . SVG Version: 6.00 Build 0)  -->
<svg version="1.1" id="Layer_1" xmlns="http://www.w3.org/2000/svg" xmlns:xlink="http://www.w3.org/1999/xlink" x="0px" y="0px"
	 viewBox="0 0 511.841 511.841" style="enable-background:new 0 0 511.841 511.841;" xml:space="preserve">
<g>
	<g>
		<path style="fill:#5ABA63;" d="M186.493,329.604c-1.9,0-3.818-0.625-5.415-1.9c-3.74-2.994-4.348-8.452-1.354-12.201
			c7.22-9.034,4.677-20.428-0.833-41.437c-1.224-4.643,1.553-9.381,6.187-10.604c4.634-1.241,9.372,1.562,10.596,6.196
			c5.693,21.686,10.613,40.422-2.404,56.693C191.56,328.493,189.035,329.604,186.493,329.604"/>
		<path style="fill:#5ABA63;" d="M264.603,329.604c-0.963,0-1.944-0.165-2.907-0.503c-4.513-1.605-6.873-6.561-5.276-11.073
			c0.078-0.234,8.149-23.266,8.01-45.568c-0.026-4.799,3.827-8.704,8.626-8.739h0.052c4.773,0,8.652,3.853,8.678,8.626
			c0.156,25.435-8.635,50.436-9.016,51.486C271.511,327.391,268.17,329.604,264.603,329.604"/>
		<path style="fill:#5ABA63;" d="M334.162,329.604c-2.43,0-4.842-1.015-6.561-2.994c-3.141-3.619-2.751-9.103,0.868-12.236
			c2.933-2.543,0.963-10.604-0.746-14.353c-1.979-4.348-0.078-9.494,4.261-11.49c4.322-1.996,9.459-0.139,11.481,4.191
			c3.896,8.366,7.524,25.097-3.619,34.755C338.197,328.901,336.175,329.604,334.162,329.604"/>
	</g>
	<path style="fill:#E12E36;" d="M336.587,63.314c-2.577,0-7.073,1.076-6.951,0.963c9.268-9.277,13.086-23.483,1.224-35.345
		c-11.984-11.976-25.531-7.506-34.799,1.77c-0.121,0.113,0.955-4.382,0.955-6.96C297.016,10.631,286.385,0,273.273,0
		c-13.112,0-23.734,10.631-23.734,23.743c0,2.577,1.076,7.073,0.955,6.96c-9.268-9.277-23.483-13.633-35.345-1.77
		c-11.976,11.976-7.498,26.069,1.77,35.345c0.121,0.113-4.374-0.963-6.951-0.963c-13.112,0-23.743,10.631-23.743,23.743
		s10.631,23.743,23.743,23.743c2.577,0,7.073-1.085,6.951-0.963c-9.268,9.268-13.633,22.936-1.77,34.799
		c11.412,11.412,26.077,8.053,35.345-1.224c0.121-0.121-0.955,4.374-0.955,6.951c0,13.112,10.622,23.196,23.734,23.196
		c13.112,0,23.743-10.084,23.743-23.196c0-2.577-1.076-7.073-0.955-6.951c9.268,9.277,23.439,12.583,34.799,1.224
		c11.524-11.524,8.044-25.531-1.224-34.799c-0.121-0.121,4.374,0.963,6.951,0.963c13.112,0,23.196-10.631,23.196-23.743
		S349.7,63.314,336.587,63.314"/>
	<path style="fill:#98C96A;" d="M243.594,223.733L243.594,223.733c-0.061-0.095-0.113-0.2-0.165-0.304
		c-0.894-1.51-1.597-3.124-2.143-4.825v-0.009c-0.095-0.278-0.182-0.564-0.269-0.842c-0.234-0.868-0.451-1.744-0.59-2.647
		c-0.217-1.206-0.373-2.43-0.373-3.697c0-13.112,10.631-23.743,23.743-23.743c2.577,0,7.073,1.076,6.951,0.955
		c-4.955-4.955-8.435-11.307-8.869-17.963c-3.601-1.909-6.63-4.66-8.782-8.079c-0.121-0.191-0.208-0.391-0.33-0.59
		c-0.816-1.397-1.484-2.89-1.996-4.46c-0.148-0.451-0.295-0.876-0.417-1.336c-0.486-1.866-0.816-3.792-0.816-5.823
		c0-2.586,1.076-7.081,0.955-6.96c-9.268,9.277-23.934,12.635-35.345,1.224c-11.863-11.863-7.498-25.522,1.77-34.799
		c0.121-0.121-4.374,0.963-6.951,0.963c-2.586,0-5.033-0.521-7.359-1.284l0,0l0,0c-2.872-0.937-5.476-2.395-7.749-4.287
		c-0.009,0-0.017-0.009-0.026-0.017c-1.128-0.946-2.161-1.979-3.098-3.115v-0.009c-0.946-1.137-1.77-2.36-2.491-3.662
		c-0.338-0.017-0.651-0.104-0.989-0.104c-13.112,0-23.734,10.631-23.734,23.743c0,2.577,1.076,7.073,0.955,6.951
		c-9.268-9.268-23.474-13.633-35.345-1.77c-11.976,11.984-7.498,26.077,1.77,35.345c0.121,0.121-4.374-0.955-6.951-0.955
		c-13.112,0-23.743,10.631-23.743,23.743c0,13.112,10.631,23.734,23.743,23.734c2.577,0,7.073-1.076,6.951-0.955
		c-9.268,9.268-13.633,22.936-1.77,34.799c11.412,11.412,26.077,8.044,35.345-1.224c0.121-0.121-0.955,4.374-0.955,6.951
		c0,13.112,10.622,23.196,23.734,23.196c13.112,0,23.743-10.084,23.743-23.196c0-2.577-1.076-7.073-0.955-6.951
		c9.268,9.268,23.439,12.574,34.799,1.224c3.471-3.471,5.441-7.177,6.448-10.9C248.714,230.059,245.72,227.213,243.594,223.733"/>
	<path style="fill:#F9D70B;" d="M413.613,211.407c0-13.112-10.084-23.743-23.196-23.743c-2.577,0-7.073,1.085-6.951,0.963
		c9.268-9.277,13.086-23.483,1.224-35.345c-11.984-11.976-25.531-7.506-34.799,1.77c-0.121,0.121,0.955-4.374,0.955-6.96
		c0-9.147-5.233-16.991-12.809-20.957c0.356,5.875-1.649,11.967-7.177,17.503c-11.359,11.351-25.531,8.044-34.799-1.224
		c-0.121-0.121,0.955,4.374,0.955,6.951c0,13.112-10.63,23.196-23.743,23.196c-4.148,0-8.001-1.102-11.394-2.907
		c0.434,6.665,3.914,13.008,8.869,17.972c0.121,0.121-4.374-0.963-6.951-0.963c-13.112,0-23.743,10.631-23.743,23.743
		c0,13.112,10.631,23.743,23.743,23.743c2.577,0,7.073-1.085,6.951-0.963c-9.268,9.277-13.633,22.936-1.77,34.799
		c11.411,11.412,26.077,8.053,35.345-1.224c0.121-0.121-0.955,4.374-0.955,6.96c0,13.112,10.622,23.196,23.734,23.196
		c13.112,0,23.743-10.084,23.743-23.196c0-2.586-1.076-7.081-0.955-6.96c9.268,9.277,23.439,12.583,34.799,1.224
		c11.524-11.524,8.044-25.522-1.224-34.799c-0.121-0.121,4.374,0.963,6.951,0.963C403.529,235.149,413.613,224.519,413.613,211.407"
		/>
	<g>
		<path style="fill:#FFFFFF;" d="M299.31,86.782c0-14.379-11.655-26.034-26.034-26.034c-14.379,0-26.034,11.655-26.034,26.034
			c0,14.379,11.655,26.034,26.034,26.034C287.656,112.816,299.31,101.162,299.31,86.782"/>
		<path style="fill:#FFFFFF;" d="M214.292,185.099c0-14.379-11.655-26.034-26.034-26.034c-14.379,0-26.034,11.654-26.034,26.034
			c0,14.379,11.655,26.034,26.034,26.034C202.638,211.133,214.292,199.479,214.292,185.099"/>
		<path style="fill:#FFFFFF;" d="M353.14,211.133c0-14.379-11.654-26.034-26.034-26.034s-26.034,11.654-26.034,26.034
			s11.655,26.034,26.034,26.034S353.14,225.513,353.14,211.133"/>
	</g>
	<path style="fill:#7F5B53;" d="M429.48,341.99c0,7.541-6.109,13.65-13.65,13.65H96.012c-7.541,0-13.65-6.109-13.65-13.65v-7.42
		c0-7.532,6.109-13.642,13.65-13.642h319.818c7.541,0,13.65,6.109,13.65,13.642V341.99z"/>
	<polygon style="fill:#AF8066;" points="351.378,503.163 160.463,503.163 108.395,355.638 403.446,355.638 	"/>
	<path style="fill:#D9AA94;" d="M371.449,446.295l-16.913-9.797c-7.09-4.252-16.089-3.558-22.433,1.736l-13.199,10.995
		c-7.168,5.979-15.941,10.136-25.27,10.526c-8.852,0.373-16.792-2.135-21.278-7.532l-33.792-35.84
		c-10.301-10.301-18.623-10.804-33.879-4.513c-8.964,3.697-16.662,13.191-26.867,13.191c-12.34,0-21.183-4.634-26.034-8.678
		l-31.657-27.509l40.335,114.289h190.915L371.449,446.295z"/>
	<path style="fill:#7F5B53;" d="M412.124,511.841H91.039c-4.79,0-8.678-3.888-8.678-8.678s3.888-8.678,8.678-8.678h321.085
		c4.79,0,8.678,3.888,8.678,8.678S416.914,511.841,412.124,511.841"/>
</g>
<g>
</g>
<g>
</g>
<g>
</g>
<g>
</g>
<g>
</g>
<g>
</g>
<g>
</g>
<g>
</g>
<g>
</g>
<g>
</g>
<g>
</g>
<g>
</g>
<g>
</g>
<g>
</g>
<g>
</g>
</svg>
